<?xml version="1.0" encoding="utf-8"?>
<!-- Generator: Adobe Illustrator 16.0.5, SVG Export Plug-In . SVG Version: 6.00 Build 0)  -->
<!DOCTYPE svg PUBLIC "-//W3C//DTD SVG 1.1//EN" "http://www.w3.org/Graphics/SVG/1.1/DTD/svg11.dtd">
<svg version="1.1" id="Layer_1" xmlns="http://www.w3.org/2000/svg" xmlns:xlink="http://www.w3.org/1999/xlink" x="0px" y="0px"
	 width="20px" height="20px" viewBox="0 0 20 20" enable-background="new 0 0 20 20" xml:space="preserve">
<path fill="#B43829" d="M12.661,11.419c-0.176,0.188-1.073,1.076-1.903,1.2c-0.831,0.123-2.231,0.126-2.733-1.388
	C7.421,9.412,8.05,8.618,8.636,8.037c0.606-0.6,1.69-0.697,2.658-0.176c0.969,0.522,0.142,0.404,0.375,1.191
	c0.233,0.787-0.565,1.528-1.317,1.505c-0.418-0.012-0.755-0.224-0.878-0.551C9.35,9.678,9.339,9.299,9.801,9.043
	c0.436-0.242,0.745,0.055,0.697,0.127c-0.049,0.073-0.359,0.315-0.346,0.431c0.024,0.212,0.188,0.345,0.424,0.339
	c0.39-0.01,0.679-0.491,0.655-0.915c-0.008-0.135-0.133-0.404-0.4-0.546c-0.268-0.141-0.581-0.261-0.958-0.224
	c-0.377,0.037-0.669,0.303-0.74,0.37c-0.07,0.066-0.563,0.717-0.497,1.412c0.067,0.694,0.343,1.194,0.618,1.479
	c0.546,0.566,1.261,0.317,1.728,0.104c0.467-0.215,0.815-0.811,1.345-0.764C12.879,10.903,12.837,11.231,12.661,11.419 M9.591,6.021
	c-1.95,0.169-2.896,1.125-3.527,2.3C5.663,9.067,5.48,9.694,5.862,11.166c0.381,1.472,1.125,2.221,1.998,2.63
	c0.872,0.409,2.149,0.593,3.363,0.266c1.213-0.329,1.967-1.07,2.578-2.163c0.612-1.091,1.012-2.541-0.303-4.412
	C12.832,6.538,11.779,5.832,9.591,6.021"/>
<path fill="#DF6254" d="M15.85,7.854c-0.518-0.374-0.84-0.583-1.012-0.316c-0.172,0.268,0.748,2.022,0.493,3.451
	c-0.392,2.2-2.334,3.253-3.021,3.602c-0.695,0.354-0.911,0.709-0.619,0.822c0.969,0.374,3.482,0.512,4.393,0.07
	c1.163-0.563,2.648-3.116,1.954-4.861C17.337,8.867,16.443,8.284,15.85,7.854"/>
<path fill="#DF6254" d="M15.185,16.55c0,0-1.315-0.045-1.94-0.128c-0.623-0.085-1.759-0.423-1.759-0.423s-0.528-0.104-0.658-0.05
	c-0.196,0.081-0.518,0.347-0.518,0.347s-2.146,1.813-3.344,1.751c-0.121-0.007-0.126,0.184,0.068,0.261
	c0.924,0.369,3.77,1.353,5.272,0.579c1.567-0.804,2.597-1.808,2.908-2.198C15.305,16.576,15.185,16.55,15.185,16.55"/>
<path fill="#DF6254" d="M9.421,15.909c0.436-0.817-1.146-1.065-1.146-1.065c-1.854-0.576-3.615-1.427-3.653-4.605
	C4.617,9.853,4.677,9.475,5.004,8.745c0.327-0.729-0.298-0.38-0.709,0c-1.075,0.992-1.847,2.851-1.847,4.57
	c0,0.695-0.038,1.492,1.555,3.186C5.747,18.354,8.985,16.727,9.421,15.909"/>
<path fill="#DF6254" d="M5.54,6.392C5.587,6.941,7.337,4.738,9.837,4.89c2.287,0.138,3.5,1.097,3.878,1.315
	c0.442,0.255,0.373-0.956,0.373-0.956s-0.337-1.504-1.663-2.486c-0.396-0.295-1.554-0.968-2.655-0.878
	C8.67,1.974,8.116,2.26,7.212,3.097C6.613,3.602,5.405,4.854,5.54,6.392"/>
<path fill="#DF6254" d="M4.36,6.906c0,0-0.192-2.003,0.734-3.094c0.927-1.09,1.34-1.55,2.373-1.923
	c0.925-0.333-0.054-0.872-0.545-0.818c-0.49,0.055-3.152,0.634-4.736,2.606C1.162,4.953,0.83,5.553,0.324,6.817
	c-0.417,1.043-0.391,2.531-0.16,3.535c0.23,1.004,0.542,1.515,0.542,1.515s0.577,0.259,0.709-0.326
	C2.152,8.262,4.36,6.906,4.36,6.906"/>
<path fill="#DF6254" d="M20.034,10.116c0,0-0.58-4.973-1.797-6.307c-1.452-1.591-4.183-2.53-4.183-2.53s-1.796-0.43-0.606,1.1
	c0.404,0.521,1.201,1.011,1.55,2.461c0.341,1.41,0.091,1.655,0.41,1.739c0.322,0.085,1.553,0.84,1.934,1.198
	c1.252,1.18,1.328,2.517,1.935,2.768C20.161,10.913,20.034,10.116,20.034,10.116"/>
</svg>
